<svg width="320" height="300" viewBox="0 0 320 300" fill="none" xmlns="http://www.w3.org/2000/svg">
<path d="M62 151C62 149.343 63.3431 148 65 148H255C256.657 148 258 149.343 258 151V166C258 181.464 245.464 194 230 194H90C74.536 194 62 181.464 62 166V151Z" stroke="#F9A600" stroke-width="4"/>
<circle cx="90" cy="179" r="10" fill="#F9A600"/>
<path d="M128 179C128 184.523 118.023 189 112.5 189C106.977 189 108 184.523 108 179C108 173.477 117.977 170 123.5 170C129.023 170 128 173.477 128 179Z" fill="#F9A600"/>
<circle cx="146" cy="179" r="10" fill="#F9A600"/>
<path d="M184.5 183.5C184.5 189.023 173.523 187 168 187C162.477 187 164 179.023 164 173.5C164 167.977 173.977 169 179.5 169C185.023 169 184.5 177.977 184.5 183.5Z" fill="#F9A600"/>
<circle cx="202" cy="179" r="10" fill="#F9A600"/>
<circle cx="230" cy="179" r="10" fill="#F9A600"/>
<rect x="64" y="149" width="192" height="16" fill="#F9A600"/>
<path d="M143.569 157.766C142.865 157.92 142.135 157.92 141.431 157.766L97.5284 148.156C96.0551 147.833 94.806 146.863 94.1292 145.515L85.6453 128.62C84.4521 126.243 85.3275 123.349 87.6377 122.032L115.099 106.38C115.853 105.95 116.707 105.723 117.575 105.723H167.425C168.293 105.723 169.147 105.95 169.901 106.38L197.362 122.032C199.672 123.349 200.548 126.243 199.355 128.62L190.871 145.515C190.194 146.863 188.945 147.833 187.472 148.156L143.569 157.766Z" fill="#F9A600"/>
<path d="M194.5 126.5C217.576 107.559 232.654 110.573 236.54 124.861" stroke="#F9A600" stroke-width="12" stroke-linecap="round"/>
<mask id="path-11-inside-1" fill="white">
<path d="M157.089 1.13703C158.165 0.716711 158.703 0.50655 159.258 0.423302C159.75 0.349476 160.25 0.349476 160.742 0.423302C161.297 0.50655 161.835 0.716711 162.911 1.13703L314.911 60.512C316.747 61.2294 317.666 61.5881 318.341 62.1953C318.939 62.7318 319.398 63.4042 319.68 64.1557C320 65.0062 320 65.992 320 67.9637V232.036C320 234.008 320 234.994 319.68 235.844C319.398 236.596 318.939 237.268 318.341 237.805C317.666 238.412 316.747 238.771 314.911 239.488L162.911 298.863C161.835 299.283 161.297 299.493 160.742 299.577C160.25 299.651 159.75 299.651 159.258 299.577C158.703 299.493 158.165 299.283 157.089 298.863L5.0892 239.488C3.25268 238.771 2.33442 238.412 1.65851 237.805C1.06133 237.268 0.602107 236.596 0.31967 235.844C0 234.994 0 234.008 0 232.036V67.9637C0 65.992 0 65.0062 0.31967 64.1557C0.602107 63.4042 1.06133 62.7318 1.65851 62.1953C2.33442 61.5881 3.25268 61.2294 5.0892 60.512L157.089 1.13703Z"/>
</mask>
<path d="M0.31967 64.1557L-12.7853 59.2301L0.31967 64.1557ZM5.0892 60.512L10.1831 73.5524L5.0892 60.512ZM1.65851 62.1953L-7.69765 51.7808L1.65851 62.1953ZM5.0892 239.488L-0.00471111 252.528L5.0892 239.488ZM1.65851 237.805L11.0147 227.39L1.65851 237.805ZM0.31967 235.844L-12.7853 240.77L0.31967 235.844ZM162.911 298.863L157.817 285.823L162.911 298.863ZM160.742 299.577L158.664 285.732L160.742 299.577ZM157.089 298.863L162.183 285.823L157.089 298.863ZM159.258 299.577L161.336 285.732L159.258 299.577ZM319.68 235.844L306.575 230.919L319.68 235.844ZM314.911 239.488L309.817 226.448L314.911 239.488ZM318.341 237.805L308.985 227.39L318.341 237.805ZM314.911 60.512L309.817 73.5524L314.911 60.512ZM318.341 62.1953L308.985 72.6099L318.341 62.1953ZM319.68 64.1557L306.575 69.0812L319.68 64.1557ZM162.911 1.13703L168.005 -11.9034L162.911 1.13703ZM160.742 0.423302L158.664 14.2683L160.742 0.423302ZM159.258 0.423302L157.18 -13.4217L159.258 0.423302ZM157.817 14.1774L309.817 73.5524L320.005 47.4716L168.005 -11.9034L157.817 14.1774ZM306 67.9637V232.036H334V67.9637H306ZM309.817 226.448L157.817 285.823L168.005 311.903L320.005 252.528L309.817 226.448ZM162.183 285.823L10.1831 226.448L-0.00471111 252.528L151.995 311.903L162.183 285.823ZM14 232.036V67.9637H-14V232.036H14ZM10.1831 73.5524L162.183 14.1774L151.995 -11.9034L-0.0047123 47.4716L10.1831 73.5524ZM14 67.9637C14 67.4445 14.0002 67.1121 14.0038 66.8391C14.0073 66.5682 14.0127 66.5136 14.0089 66.5708C13.9993 66.7158 13.9255 67.7486 13.4246 69.0812L-12.7853 59.2301C-14.2156 63.0358 -14 67.1203 -14 67.9637H14ZM-0.0047123 47.4716C-0.790324 47.7785 -4.67328 49.0638 -7.69765 51.7808L11.0147 72.6099C9.95564 73.5613 9.02044 74.0058 8.8889 74.0676C8.83705 74.0919 8.8859 74.067 9.13696 73.9652C9.39002 73.8625 9.6995 73.7413 10.1831 73.5524L-0.0047123 47.4716ZM13.4246 69.0812C12.9162 70.4338 12.0896 71.6442 11.0147 72.6099L-7.69765 51.7808C-9.96695 53.8195 -11.712 56.3746 -12.7853 59.2301L13.4246 69.0812ZM10.1831 226.448C9.6995 226.259 9.39002 226.138 9.13696 226.035C8.8859 225.933 8.83705 225.908 8.8889 225.932C9.02044 225.994 9.95564 226.439 11.0147 227.39L-7.69765 248.219C-4.67328 250.936 -0.790323 252.221 -0.00471111 252.528L10.1831 226.448ZM-14 232.036C-14 232.88 -14.2156 236.964 -12.7853 240.77L13.4246 230.919C13.9255 232.251 13.9993 233.284 14.0089 233.429C14.0127 233.486 14.0073 233.432 14.0038 233.161C14.0002 232.888 14 232.555 14 232.036H-14ZM11.0147 227.39C12.0896 228.356 12.9162 229.566 13.4246 230.919L-12.7853 240.77C-11.712 243.625 -9.96695 246.18 -7.69765 248.219L11.0147 227.39ZM157.817 285.823C157.532 285.934 157.357 286.002 157.215 286.056C157.075 286.11 157.059 286.114 157.109 286.097C157.165 286.077 157.35 286.016 157.622 285.944C157.91 285.869 158.262 285.792 158.664 285.732L162.82 313.422C165.288 313.051 167.513 312.096 168.005 311.903L157.817 285.823ZM151.995 311.903C152.487 312.096 154.712 313.051 157.18 313.422L161.336 285.732C161.738 285.792 162.09 285.869 162.378 285.944C162.65 286.016 162.835 286.077 162.891 286.097C162.941 286.114 162.925 286.11 162.785 286.056C162.643 286.002 162.468 285.934 162.183 285.823L151.995 311.903ZM158.664 285.732C159.55 285.599 160.45 285.599 161.336 285.732L157.18 313.422C159.05 313.702 160.95 313.702 162.82 313.422L158.664 285.732ZM306 232.036C306 232.556 306 232.888 305.996 233.161C305.993 233.432 305.987 233.486 305.991 233.429C306.001 233.284 306.075 232.251 306.575 230.919L332.785 240.77C334.216 236.964 334 232.88 334 232.036H306ZM320.005 252.528C320.79 252.221 324.673 250.936 327.698 248.219L308.985 227.39C310.044 226.439 310.98 225.994 311.111 225.932C311.163 225.908 311.114 225.933 310.863 226.035C310.61 226.138 310.301 226.259 309.817 226.448L320.005 252.528ZM306.575 230.919C307.084 229.566 307.91 228.356 308.985 227.39L327.698 248.219C329.967 246.18 331.712 243.625 332.785 240.77L306.575 230.919ZM309.817 73.5524C310.301 73.7413 310.61 73.8625 310.863 73.9652C311.114 74.067 311.163 74.0919 311.111 74.0676C310.98 74.0058 310.044 73.5613 308.985 72.6099L327.698 51.7808C324.673 49.0638 320.79 47.7785 320.005 47.4716L309.817 73.5524ZM334 67.9637C334 67.1203 334.216 63.0358 332.785 59.2301L306.575 69.0812C306.075 67.7486 306.001 66.7158 305.991 66.5708C305.987 66.5136 305.993 66.5682 305.996 66.8391C306 67.1122 306 67.4445 306 67.9637H334ZM308.985 72.6099C307.91 71.6442 307.084 70.4338 306.575 69.0812L332.785 59.2301C331.712 56.3746 329.967 53.8195 327.698 51.7808L308.985 72.6099ZM168.005 -11.9034C167.513 -12.0956 165.288 -13.0512 162.82 -13.4217L158.664 14.2683C158.262 14.2079 157.91 14.1307 157.622 14.0556C157.35 13.9845 157.165 13.9225 157.109 13.9032C157.059 13.8863 157.075 13.8905 157.215 13.9438C157.357 13.998 157.532 14.0661 157.817 14.1774L168.005 -11.9034ZM162.183 14.1774C162.468 14.0661 162.643 13.998 162.785 13.9438C162.925 13.8905 162.941 13.8863 162.891 13.9032C162.835 13.9225 162.65 13.9845 162.378 14.0556C162.09 14.1307 161.738 14.2079 161.336 14.2683L157.18 -13.4217C154.712 -13.0512 152.487 -12.0956 151.995 -11.9034L162.183 14.1774ZM162.82 -13.4217C160.95 -13.7022 159.05 -13.7022 157.18 -13.4217L161.336 14.2683C160.45 14.4012 159.55 14.4012 158.664 14.2683L162.82 -13.4217Z" fill="#F9A600" mask="url(#path-11-inside-1)"/>
</svg>
