<svg width="200" height="93" viewBox="0 0 200 93" fill="none" xmlns="http://www.w3.org/2000/svg">
    <path d="M2 48C2 46.3431 3.34315 45 5 45H195C196.657 45 198 46.3431 198 48V63C198 78.464 185.464 91 170 91H30C14.536 91 2 78.464 2 63V48Z"
          stroke="green" stroke-width="4"/>
    <g fill="green">
        <circle cx="30" cy="76" r="10"/>
        <circle cx="58" cy="76" r="10"/>
        <circle cx="86" cy="76" r="10"/>
        <circle cx="114" cy="76" r="10"/>
        <circle cx="142" cy="76" r="10"/>
        <circle cx="170" cy="76" r="10"/>
        <rect x="4" y="46" width="192" height="16"/>
        <path d="M83.5692 54.766C82.8647 54.9202 82.1353 54.9202 81.4308 54.766L37.5284 45.1558C36.0551 44.8333 34.806 43.863 34.1292 42.5152L25.6453 25.6195C24.4521 23.2432 25.3275 20.3486 27.6377 19.0319L55.099 3.37944C55.8533 2.94947 56.7066 2.72336 57.5749 2.72336H107.425C108.293 2.72336 109.147 2.94947 109.901 3.37944L137.362 19.0319C139.672 20.3486 140.548 23.2432 139.355 25.6195L130.871 42.5152C130.194 43.863 128.945 44.8333 127.472 45.1558L83.5692 54.766Z"/>
    </g>
</svg>
