<svg fill="white"
   height="64px"
   version="1.1"
   viewBox="0 0 64 64"
   width="64px"
   xmlns="http://www.w3.org/2000/svg"
   xmlns:svg="http://www.w3.org/2000/svg">
    <path d="M23.727,16.403v4.84v5.058v14.236c-1.268-0.777-2.754-1.233-4.35-1.233c-4.612,0-8.353,3.74-8.353,8.349  c0,4.614,3.74,8.354,8.353,8.354c4.61,0,8.349-3.739,8.35-8.352h0V25.151l21.25-6.109V33.33c-1.268-0.777-2.754-1.233-4.35-1.233  c-4.614,0-8.353,3.739-8.353,8.348c0,4.613,3.739,8.354,8.353,8.354c4.344,0,7.914-3.325,8.31-7.57h0.04V17.892v-3.586V7.993  L23.727,16.403z"/>
    <path d="M 48.659438,52.350002 C 46.304568,49.420017 41.726937,43.728157 38.486919,39.701424 35.246901,35.674691 30.78848,30.131005 28.579325,27.382115 26.37016,24.633232 22.306743,19.580271 19.549509,16.153312 16.792266,12.72636 14.527156,9.8805429 14.51592,9.8292793 14.504685,9.7780128 14.895221,9.3786022 15.383771,8.9416972 l 0.888276,-0.7943738 0.138107,0.1710772 c 3.104029,3.8450294 38.280331,47.6212874 38.319227,47.6875474 0.036,0.06136 -0.251684,0.377786 -0.788973,0.867772 -0.465114,0.424159 -0.880245,0.778472 -0.922535,0.787331 -0.04227,0.0089 -2.003571,-2.381104 -4.358448,-5.311083 z"/>
</svg>
